<svg xmlns="http://www.w3.org/2000/svg" width="23.8" height="16.645" viewBox="0 0 23.8 16.645">
  <g id="Group" transform="translate(0)">
    <path id="Combined_Shape" data-name="Combined Shape" d="M15.646,11.881V9.074H19.01V9.98a1.907,1.907,0,0,1-1.9,1.9Zm-.008-5.366a3.327,3.327,0,0,0-3.318-3.176H0V1.9A1.906,1.906,0,0,1,1.9,0H17.109a1.907,1.907,0,0,1,1.9,1.9V6.515Z" transform="translate(4.79)" fill="#b5c1cd" class="dark-change"/>
    <path id="Combined_Shape-2" data-name="Combined Shape" d="M17.109,11.881H1.9A1.9,1.9,0,0,1,0,9.98V1.9A1.9,1.9,0,0,1,1.9,0H17.109a1.9,1.9,0,0,1,1.9,1.9V9.98A1.9,1.9,0,0,1,17.109,11.881ZM13.966,8.426v.731h2.851V8.426Zm-3.8,0v.731h2.851V8.426Zm-4.039,0v.731H8.976V8.426Zm-3.8,0v.731H5.174V8.426Zm.45-5.819a.476.476,0,0,0-.475.475v1.8a.476.476,0,0,0,.475.475H4.428A.476.476,0,0,0,4.9,4.879v-1.8a.476.476,0,0,0-.475-.475Z" transform="translate(0 4.764)" class="bright-change" fill="#8397ab"/>
  </g>
</svg>
