<svg id="Rectangle_2" data-name="Rectangle 2" xmlns="http://www.w3.org/2000/svg" width="44.379" height="44" viewBox="0 0 44.379 44">
  <rect id="Rectangle" width="44.379" height="44" rx="20" fill="#7e51ff" opacity="0.1"/>
  <path id="Shape" d="M2.219,17.6A2.2,2.2,0,0,1,0,15.4L.011,2.2A2.193,2.193,0,0,1,2.219,0H19.971A2.2,2.2,0,0,1,22.19,2.2V15.4a2.2,2.2,0,0,1-2.219,2.2Z" transform="translate(11.095 13.2)" fill="#7e51ff"/>
  <g id="Group" transform="translate(18.861 14.3)">
    <path id="Fill_16" data-name="Fill 16" d="M.636.178H.029A.75.75,0,0,1,0,0H.7a1.014,1.014,0,0,1-.06.178" transform="translate(0.242 0.837)" fill="#bcbcb7"/>
  </g>
</svg>
