<svg id="Group_4" data-name="Group 4" xmlns="http://www.w3.org/2000/svg" width="24" height="24" viewBox="0 0 24 24">
  <rect id="Rectangle" width="24" height="24" rx="4" fill="#17ecd4"/>
  <path id="Shape" d="M1.555,14A1.56,1.56,0,0,1,0,12.444V9.333A1.56,1.56,0,0,1,1.555,7.778H9.333V4.667h1.556V7.778h1.555A1.56,1.56,0,0,1,14,9.333v3.111A1.561,1.561,0,0,1,12.444,14ZM10.111,2.723A2.7,2.7,0,0,0,8.167,3.5l-.622-.622a3.568,3.568,0,0,1,5.133,0l-.622.622A2.7,2.7,0,0,0,10.111,2.723Zm0-1.789A4.866,4.866,0,0,0,6.845,2.255l-.622-.622a5.446,5.446,0,0,1,7.778,0l-.623.622A4.866,4.866,0,0,0,10.111.933Z" transform="translate(5 5)" fill="#fff"/>
</svg>
