<svg id="Group_15" data-name="Group 15" xmlns="http://www.w3.org/2000/svg" width="24" height="24.001" viewBox="0 0 24 24.001" >
  <path id="Combined_Shape" data-name="Combined Shape" d="M14.4,24h0L12,21.6,9.6,24,7.2,21.6,4.8,24,2.4,21.6,0,24V8.4H19.2V24l-2.4-2.4L14.4,24ZM19.2,6H0V4.8H19.2V6Zm0-3.6H0V0H17.2a2,2,0,0,1,2,2v.4Z" transform="translate(4.8)" fill="#b5c1cd" />
  <path id="Rectangle_Copy_5" data-name="Rectangle Copy 5" d="M4.8,0h0a0,0,0,0,1,0,0V12a0,0,0,0,1,0,0H0a0,0,0,0,1,0,0V4.8A4.8,4.8,0,0,1,4.8,0Z" fill="#8397ab" />
</svg>
