<svg id="Group_5" data-name="Group 5" xmlns="http://www.w3.org/2000/svg" width="24" height="24" viewBox="0 0 24 24">
  <rect id="Rectangle" width="24" height="24" rx="4" fill="#c155ff"/>
  <path id="Combined_Shape" data-name="Combined Shape" d="M7.179,15.727,5.053,13.666,6.378,12.34l.952.923.648-.648a.467.467,0,0,0,0-.662l-.565-.566a8.693,8.693,0,0,1,.755-.571l.473.473a1.405,1.405,0,0,1,0,1.989L8,13.915l.5.485a.937.937,0,0,1-1.325,1.327ZM1.738,13.666.412,12.34a1.409,1.409,0,0,1,0-1.989l2.32-2.32,3.315,3.315-2.32,2.32a1.406,1.406,0,0,1-1.989,0Zm1.326-3.315-.662.663a.468.468,0,1,0,.662.662l.663-.662a.469.469,0,0,0-.663-.663Zm.292-3.023a10.084,10.084,0,0,0,2.222-4.5l.047-.235,5.842,5.841-.236.047a10.046,10.046,0,0,0-4.48,2.244Zm8.973.641L6.088,1.728A.938.938,0,1,1,7.414.4l6.24,6.241a.937.937,0,0,1-1.326,1.326Zm.382-3.281a.468.468,0,1,1,0-.937h.937a.468.468,0,1,1,0,.937ZM11.442,2.675a.467.467,0,0,1,0-.662l.937-.938a.469.469,0,0,1,.663.663l-.938.937a.467.467,0,0,1-.662,0ZM9.429,1.407V.469a.468.468,0,1,1,.937,0v.938a.468.468,0,0,1-.937,0Z" transform="translate(5 4)" fill="#fff"/>
</svg>
