<svg id="Group_11" data-name="Group 11" xmlns="http://www.w3.org/2000/svg" width="32" height="32" viewBox="0 0 32 32">
  <path id="Rectangle" d="M5.333,32A5.334,5.334,0,0,1,0,26.667V5.333A5.333,5.333,0,0,1,5.333,0H26.667A5.334,5.334,0,0,1,32,5.333V26.667A5.334,5.334,0,0,1,26.667,32Z" fill="rgba(131,151,171,0.36)"/>
  <path id="Shape" d="M4.923,14.359H8.205a1.641,1.641,0,1,1-3.282,0ZM0,13.539v-.821l1.641-1.641v-4.1A4.985,4.985,0,0,1,5.333,1.788V1.231a1.231,1.231,0,1,1,2.462,0v.557a5,5,0,0,1,3.693,5.186v4.1l1.641,1.641v.821Z" transform="translate(9 8)" fill="#8397ab"/>
</svg>
