<svg xmlns="http://www.w3.org/2000/svg" width="108.951" height="23.999" viewBox="0 0 108.951 23.999">
  <path id="Combined_Shape" data-name="Combined Shape" d="M75.929,24H71.341V.458h4.5V2.347A6.2,6.2,0,0,1,80.942,0c4.729,0,8.294,3.869,8.294,9s-3.558,9-8.276,9a6.255,6.255,0,0,1-5.03-2.223V24h0ZM75.7,9a4.413,4.413,0,1,0,8.806,0A4.413,4.413,0,1,0,75.7,9ZM4.587,24H0V.458H4.5V2.347A6.2,6.2,0,0,1,9.6,0c4.729,0,8.294,3.869,8.294,9s-3.558,9-8.276,9a6.254,6.254,0,0,1-5.03-2.223V24h0ZM4.359,9a4.413,4.413,0,1,0,8.806,0A4.413,4.413,0,1,0,4.359,9Zm48.768,6.989,1.817-3.494a10.011,10.011,0,0,0,5.825,1.677c2.135,0,3.158-.6,3.158-1.606,0-.83-.864-1.289-2.84-1.571l-1.4-.194c-3.954-.548-5.912-2.276-5.912-5.189C53.78,2.1,56.5.018,61,.018a15.316,15.316,0,0,1,7.148,1.624L66.592,5.224A13.781,13.781,0,0,0,61.139,3.83c-1.747,0-2.63.617-2.63,1.553,0,.988,1.236,1.236,2.789,1.465l1.517.229c3.706.565,5.771,2.223,5.771,5.118,0,3.529-2.894,5.806-7.853,5.806A13.625,13.625,0,0,1,53.127,15.989ZM91.057,9c0-5.131,3.558-9,8.276-9a6.271,6.271,0,0,1,5.118,2.347V.458h4.5v17.1h-4.5V15.671A6.251,6.251,0,0,1,99.333,18C94.614,18,91.057,14.131,91.057,9Zm4.712,0a4.419,4.419,0,0,0,4.411,4.712A4.372,4.372,0,0,0,104.593,9a4.372,4.372,0,0,0-4.413-4.712A4.419,4.419,0,0,0,95.769,9ZM35.7,15.432A8.887,8.887,0,0,1,33.077,9,8.887,8.887,0,0,1,35.7,2.568a9.815,9.815,0,0,1,13.238,0A8.868,8.868,0,0,1,51.572,9a8.866,8.866,0,0,1-2.634,6.432,9.815,9.815,0,0,1-13.238,0ZM37.771,9a4.547,4.547,0,1,0,9.088,0,4.547,4.547,0,1,0-9.088,0Zm-17,8.56V.459h4.464v1.87A5.4,5.4,0,0,1,30.057,0a7,7,0,0,1,2.4.371l-.689,4.57a7.477,7.477,0,0,0-2.787-.546c-2.136,0-3.6,1.305-3.6,3.847V17.56Z" fill="#fff"/>
</svg>
