<svg id="Group_3" data-name="Group 3" xmlns="http://www.w3.org/2000/svg" width="23.848" height="26.485" viewBox="0 0 23.848 26.485">
  <path id="Combined_Shape" data-name="Combined Shape" d="M2.667,17.365A2.675,2.675,0,0,1,0,14.7V2.667A2.674,2.674,0,0,1,2.667,0H8.421a14.354,14.354,0,0,0-.272,1.417H3.168c-.587,0-1.066.36-1.066.8,0,.01,0,.02,0,.03a.153.153,0,0,0,0,.022v.481a.267.267,0,0,0,.266.266H22.782V6.934h-.4l-.065,0-.064,0H17.607A2.669,2.669,0,0,0,14.94,9.6v1.2a2.67,2.67,0,0,0,2.667,2.667h4.642c.022,0,.042,0,.064,0s.043,0,.065,0h.4v3.365a.535.535,0,0,1-.533.534ZM22.378,12.4l-.022,0-.022,0-.022,0-.063,0H17.607a1.6,1.6,0,0,1-1.6-1.6V9.6a1.6,1.6,0,0,1,1.6-1.6h4.642l.063,0,.022,0,.018,0,.025,0h.4a1.068,1.068,0,0,1,1.066,1.066v2.267A1.068,1.068,0,0,1,22.782,12.4Zm-4.995-2.2a.8.8,0,1,0,.8-.8A.8.8,0,0,0,17.383,10.2Zm3.186-8.783L21.853,0h.4a.535.535,0,0,1,.533.534v.883Zm-6.216,0A6.724,6.724,0,0,1,16.064.7v.715Z" transform="translate(0 9.119)" fill="#b5c1cd"/>
  <path id="Fill_5" data-name="Fill 5" d="M7.74,8.049c.09,0,.176,0,.26,0v2.778c0,.293.161.355.358.138l4.61-5.085a.594.594,0,0,0,0-.786L8.363.127C8.163-.088,8-.024,8,.269V3.448c-.085,0-.17-.006-.26-.006-6.252,0-7.5,5.351-7.74,7.895H1.2C2.469,9.965,4.773,8.049,7.74,8.049" transform="translate(9.665)" fill="#8397ab"/>
</svg>
