<svg xmlns="http://www.w3.org/2000/svg" width="23.31" height="23.883" viewBox="0 0 23.31 23.883">
  <g id="Group" transform="translate(0 0)">
    <path id="Combined_Shape" data-name="Combined Shape" d="M0,21.534l8.542-8.543,2.35,2.349L2.349,23.883Zm19.836-3.488a1.737,1.737,0,1,1,1.737,1.736A1.737,1.737,0,0,1,19.836,18.046ZM19.761,7.777a1.51,1.51,0,1,1,1.509,1.51A1.51,1.51,0,0,1,19.761,7.777Zm-7.627-6.04a1.737,1.737,0,1,1,1.737,1.736A1.737,1.737,0,0,1,12.135,1.737Z" transform="translate(0 0)" fill="#b5c1cd"/>
    <path id="Fill_51" data-name="Fill 51" d="M12.807,7.026l3.433,4.6-5.74-.073L7.186,16.24l-1.7-5.482L0,9.055,4.687,5.74,4.613,0l4.6,3.433L14.651,1.59Z" transform="translate(3.302 4.001)" fill="#8397ab"/>
  </g>
</svg>
